<svg xmlns="http://www.w3.org/2000/svg" viewBox="0 0 512 512">
  <defs>
    <linearGradient id="blueGradLogo" x1="0%" y1="100%" x2="0%" y2="0%">
      <stop offset="0%" style="stop-color:#0A369D;stop-opacity:1" />
      <stop offset="100%" style="stop-color:#3B82F6;stop-opacity:1" />
    </linearGradient>
    <linearGradient id="greenGradLogo" x1="0%" y1="100%" x2="0%" y2="0%">
      <stop offset="0%" style="stop-color:#10B981;stop-opacity:1" />
      <stop offset="100%" style="stop-color:#34D399;stop-opacity:1" />
    </linearGradient>
  </defs>

  <!-- Circular Arrows -->
  <path d="M256 40 C 350 40, 440 120, 440 256 L 470 256 L 420 310 L 370 256 L 400 256 C 400 160, 340 80, 256 80 L 256 40 Z" fill="url(#blueGradLogo)" />
  <path d="M256 472 C 162 472, 72 392, 72 256 L 42 256 L 92 202 L 142 256 L 112 256 C 112 352, 172 432, 256 432 L 256 472 Z" fill="url(#greenGradLogo)" />

  <!-- Document Icon -->
  <g transform="translate(130, 160) scale(0.8)">
    <rect x="0" y="0" width="140" height="180" rx="15" fill="url(#blueGradLogo)" />
    <rect x="30" y="40" width="80" height="12" rx="6" fill="#FFFFFF" />
    <rect x="30" y="75" width="80" height="12" rx="6" fill="#FFFFFF" />
    <rect x="30" y="110" width="50" height="12" rx="6" fill="#FFFFFF" />
    <circle cx="120" cy="160" r="35" fill="url(#blueGradLogo)" stroke="#FFFFFF" stroke-width="8" />
    <path d="M105 160 L 115 170 L 135 150" stroke="#FFFFFF" stroke-width="12" fill="none" stroke-linecap="round" stroke-linejoin="round" />
  </g>

  <!-- Bar Chart Icon -->
  <g transform="translate(280, 200) scale(0.8)">
    <rect x="0" y="80" width="35" height="60" rx="8" fill="url(#greenGradLogo)" />
    <rect x="55" y="40" width="35" height="100" rx="8" fill="url(#greenGradLogo)" />
    <rect x="110" y="0" width="35" height="140" rx="8" fill="url(#greenGradLogo)" />
  </g>
</svg>
