<svg xmlns="http://www.w3.org/2000/svg" viewBox="0 0 1200 400">
  <defs>
    <linearGradient id="brandGradBG" x1="0%" y1="100%" x2="100%" y2="0%">
      <stop offset="0%" style="stop-color:#0A369D;stop-opacity:1" />
      <stop offset="100%" style="stop-color:#10B981;stop-opacity:1" />
    </linearGradient>
  </defs>

  <!-- Left: New Integrated Icon -->
  <g transform="translate(100, 75) scale(0.5)">
    <path d="M256 40 L 290 40 L 305 85 C 322 90, 338 98, 353 108 L 395 80 L 432 117 L 404 159 C 414 174, 422 190, 427 207 L 472 222 L 472 274 L 427 289 C 422 306, 414 322, 404 337 L 432 379 L 395 416 L 353 388 C 338 398, 322 406, 305 411 L 290 456 L 222 456 L 207 411 C 190 406, 174 398, 159 388 L 117 416 L 80 379 L 108 337 C 98 322, 90 306, 85 289 L 40 274 L 40 222 L 85 207 C 90 190, 98 174, 108 159 L 80 117 L 117 80 L 159 108 C 174 98, 190 90, 207 85 L 222 40 Z" 
      fill="none" stroke="url(#brandGradBG)" stroke-width="24" stroke-linejoin="round" />
    <circle cx="256" cy="256" r="110" fill="url(#brandGradBG)" opacity="0.1" />
    <circle cx="256" cy="256" r="95" fill="none" stroke="url(#brandGradBG)" stroke-width="12" />
    <path d="M200 180 L 256 260 L 312 180 M210 280 L 302 280 M210 320 L 302 320 M256 260 L 256 360" 
      fill="none" stroke="url(#brandGradBG)" stroke-width="24" stroke-linecap="round" stroke-linejoin="round" />
  </g>

  <!-- Right: Branding Text -->
  <text x="420" y="210" font-family="Arial, sans-serif" font-weight="bold" font-size="80" fill="#0A369D">Catixs</text>
  <text x="700" y="210" font-family="Arial, sans-serif" font-weight="bold" font-size="80" fill="#10B981">FinWork</text>
  <text x="420" y="290" font-family="Arial, sans-serif" font-weight="medium" font-size="36" fill="#666" letter-spacing="15">财工一体化管理平台</text>
</svg>
